<?xml version="1.0" encoding="utf-8"?>
<!-- Generator: Adobe Illustrator 19.2.1, SVG Export Plug-In . SVG Version: 6.00 Build 0)  -->
<svg version="1.1" id="Capa_1" xmlns="http://www.w3.org/2000/svg" xmlns:xlink="http://www.w3.org/1999/xlink" x="0px" y="0px"
	 viewBox="0 0 24 24" style="enable-background:new 0 0 24 24;" xml:space="preserve">
<style type="text/css">
	.st0{fill:#6B6B6B;}
</style>
<path class="st0" d="M4.9,23.4c-0.1,0-0.2,0-0.3-0.1c-0.1-0.1-0.2-0.3-0.2-0.4l1.3-7.7L0.1,9.7C0,9.6,0,9.4,0,9.3
	C0.1,9.1,0.2,9,0.4,9l7.8-1.1l3.5-7c0.1-0.1,0.2-0.2,0.4-0.2l0,0c0.2,0,0.3,0.1,0.4,0.2l3.5,7L23.6,9c0.2,0,0.3,0.1,0.3,0.3
	c0.1,0.2,0,0.3-0.1,0.4l-5.6,5.5l1.3,7.7c0,0.2,0,0.3-0.2,0.4c-0.1,0.1-0.3,0.1-0.5,0L12,19.7l-6.9,3.7C5,23.4,4.9,23.4,4.9,23.4z
	 M1.4,9.7l5.2,5c0.1,0.1,0.1,0.2,0.1,0.4l-1.2,7.1l6.4-3.4c0.1-0.1,0.3-0.1,0.4,0l6.4,3.4l-1.2-7.1c0-0.1,0-0.3,0.1-0.4l5.2-5
	l-7.1-1c-0.1,0-0.3-0.1-0.3-0.2L12,2L8.8,8.4C8.8,8.6,8.6,8.6,8.5,8.7L1.4,9.7z"/>
</svg>
