<?xml version="1.0" encoding="utf-8"?>
<!-- Generator: Adobe Illustrator 19.2.1, SVG Export Plug-In . SVG Version: 6.00 Build 0)  -->
<svg version="1.1" id="Capa_1" xmlns="http://www.w3.org/2000/svg" xmlns:xlink="http://www.w3.org/1999/xlink" x="0px" y="0px"
	 viewBox="0 0 24 24" style="enable-background:new 0 0 24 24;" xml:space="preserve">
<style type="text/css">
	.st0{fill:#6B6B6B;}
</style>
<g>
	<g>
		<path class="st0" d="M19.4,16.6c-0.1,0-0.2,0-0.3-0.1l-4.5-4.2c-0.2-0.1-0.2-0.4,0-0.5c0.1-0.2,0.4-0.2,0.5,0l4.5,4.2
			c0.2,0.1,0.2,0.4,0,0.5C19.6,16.6,19.5,16.6,19.4,16.6z"/>
		<path class="st0" d="M4.6,16.6c-0.1,0-0.2,0-0.3-0.1c-0.1-0.2-0.1-0.4,0-0.5l4.5-4.2c0.2-0.1,0.4-0.1,0.5,0c0.1,0.2,0.1,0.4,0,0.5
			l-4.5,4.2C4.8,16.6,4.7,16.6,4.6,16.6z"/>
	</g>
	<path class="st0" d="M22.1,20.5H1.9c-1.1,0-1.9-0.9-1.9-1.9V5.4c0-1.1,0.9-1.9,1.9-1.9h20.1c1.1,0,1.9,0.9,1.9,1.9v13.2
		C24,19.7,23.1,20.5,22.1,20.5z M1.9,4.2c-0.6,0-1.2,0.5-1.2,1.2v13.2c0,0.6,0.5,1.2,1.2,1.2h20.1c0.6,0,1.2-0.5,1.2-1.2V5.4
		c0-0.6-0.5-1.2-1.2-1.2H1.9z"/>
	<path class="st0" d="M12,13.9c-0.5,0-1-0.2-1.4-0.5L0.6,4.8c-0.2-0.1-0.2-0.4,0-0.5C0.7,4,1,4,1.2,4.2l9.9,8.7
		c0.5,0.4,1.3,0.4,1.8,0l9.9-8.7c0.2-0.1,0.4-0.1,0.5,0c0.1,0.2,0.1,0.4,0,0.5l-9.9,8.7C13,13.8,12.5,13.9,12,13.9z"/>
</g>
</svg>
