<?xml version="1.0" encoding="utf-8"?>
<!-- Generator: Adobe Illustrator 19.2.1, SVG Export Plug-In . SVG Version: 6.00 Build 0)  -->
<svg version="1.1" id="Layer_1" xmlns="http://www.w3.org/2000/svg" xmlns:xlink="http://www.w3.org/1999/xlink" x="0px" y="0px"
	 viewBox="0 0 24 24" style="enable-background:new 0 0 24 24;" xml:space="preserve">
<style type="text/css">
	.st0{fill:#FFFFFF;}
	.st1{opacity:0.29;}
</style>
<path class="st0" d="M15,17c0.1,0.6,0.1,1.2,0.1,1.7c-1.3,0.6-2.6,1-4.1,1.1C12.6,19.2,14,18.2,15,17z"/>
<path class="st0" d="M15.5,18.5c0-0.5,0-1.1-0.1-1.6c0-0.1,0-0.2-0.1-0.3c1.3-1.6,2-3.6,1.8-5.7c-0.4-4.9-5.2-8-10.7-8.1
	c0,0,0,0,0,0L6.2,2.4c1.2-0.2,2.1-0.5,3.2-0.6C15.4,1.4,20.6,5,21,10C21.2,13.6,19,16.8,15.5,18.5z"/>
<path class="st1" d="M15.5,18.5c-0.1,0.1-0.3,0.1-0.4,0.2c0.1-0.6,0.1-1.2-0.1-1.7c0.1-0.1,0.2-0.2,0.3-0.4c0,0.1,0,0.2,0.1,0.3
	C15.5,17.5,15.5,18,15.5,18.5z"/>
<path class="st0" d="M15.1,18.7c-0.3,2.1-1.8,4-4,4.5c-0.3,0.1-0.7,0.1-1,0.1c-2.5,0.1-4.7-1.6-5.3-4.1c-0.7-2.8,1.1-5.7,3.9-6.3
	c0.5-0.1,0.9-0.2,1.4-0.1c2.3,0.1,4.4,1.7,4.9,4.1c0,0,0,0.1,0,0.1C15.2,17.6,15.2,18.2,15.1,18.7z"/>
<polygon class="st0" points="12.9,16.4 6.5,17.8 6.3,2.7 6.3,2.7 "/>
<path class="st0" d="M6.4,2.8C5.8,2.9,5.2,2.6,5,2.1C4.6,1.4,5,0.6,5.8,0.2C5.4,0.6,5.2,1.2,5.5,1.8c0.2,0.3,0.4,0.5,0.8,0.7
	L6.4,2.8z"/>
<path class="st0" d="M5.4,3.5C5.4,3.5,5.5,3.5,5.4,3.5L5.4,3.5L5.4,3.5z"/>
</svg>
