<?xml version="1.0" encoding="utf-8"?>
<!-- Generator: Adobe Illustrator 19.2.1, SVG Export Plug-In . SVG Version: 6.00 Build 0)  -->
<svg version="1.1" id="Capa_1" xmlns="http://www.w3.org/2000/svg" xmlns:xlink="http://www.w3.org/1999/xlink" x="0px" y="0px"
	 viewBox="0 0 24 24" style="enable-background:new 0 0 24 24;" xml:space="preserve">
<style type="text/css">
	.st0{fill:#6B6B6B;}
</style>
<g>
	<path class="st0" d="M22.8,9.3h-2.2c-0.4,0-0.7-0.2-0.8-0.5c-0.1-0.3-0.1-0.7,0.2-0.9l1.6-1.6c0.2-0.2,0.4-0.5,0.4-0.9
		c0-0.3-0.1-0.6-0.4-0.9l-2-2C19,2,18.2,2,17.7,2.5l-1.6,1.6c-0.3,0.3-0.6,0.3-0.9,0.2c-0.3-0.1-0.5-0.4-0.5-0.8V1.2
		c0-0.7-0.6-1.2-1.2-1.2h-2.9C9.9,0,9.3,0.6,9.3,1.2v2.2c0,0.4-0.2,0.7-0.5,0.8C8.5,4.4,8.1,4.3,7.9,4.1L6.3,2.5C5.8,2,5,2,4.5,2.5
		l-2,2C2.3,4.8,2.1,5.1,2.1,5.4c0,0.3,0.1,0.6,0.4,0.9l1.6,1.6c0.3,0.3,0.3,0.6,0.2,0.9C4.1,9.1,3.8,9.3,3.5,9.3H1.2
		C0.6,9.3,0,9.9,0,10.6v2.9c0,0.7,0.6,1.2,1.2,1.2h2.2c0.4,0,0.7,0.2,0.8,0.5c0.1,0.3,0.1,0.7-0.2,0.9l-1.6,1.6
		c-0.2,0.2-0.4,0.5-0.4,0.9c0,0.3,0.1,0.6,0.4,0.9l2,2C5,22,5.8,22,6.3,21.5l1.6-1.6c0.3-0.3,0.6-0.3,0.9-0.2
		c0.3,0.1,0.5,0.4,0.5,0.8v2.2c0,0.7,0.6,1.2,1.2,1.2h2.9c0.7,0,1.2-0.6,1.2-1.2v-2.2c0-0.4,0.2-0.7,0.5-0.8
		c0.3-0.1,0.7-0.1,0.9,0.2l1.6,1.6c0.5,0.5,1.3,0.5,1.7,0l2-2c0.2-0.2,0.4-0.5,0.4-0.9c0-0.3-0.1-0.6-0.4-0.9l-1.6-1.6
		c-0.3-0.3-0.3-0.6-0.2-0.9c0.1-0.3,0.4-0.5,0.8-0.5h2.2c0.7,0,1.2-0.6,1.2-1.2v-2.9C24,9.9,23.4,9.3,22.8,9.3z M23.1,13.4
		c0,0.2-0.2,0.3-0.3,0.3h-2.2c-0.7,0-1.3,0.4-1.6,1.1c-0.3,0.7-0.1,1.4,0.4,1.9l1.6,1.6c0.1,0.1,0.1,0.4,0,0.5l-2,2
		c-0.1,0.1-0.4,0.1-0.5,0l-1.6-1.6c-0.5-0.5-1.2-0.7-1.9-0.4c-0.7,0.3-1.1,0.9-1.1,1.6v2.2c0,0.2-0.2,0.3-0.3,0.3h-2.9
		c-0.2,0-0.3-0.2-0.3-0.3v-2.2c0-0.7-0.4-1.3-1.1-1.6c-0.2-0.1-0.5-0.1-0.7-0.1c-0.5,0-0.9,0.2-1.2,0.5l-1.6,1.6
		c-0.1,0.1-0.4,0.1-0.5,0l-2-2c-0.1-0.1-0.1-0.4,0-0.5l1.6-1.6c0.5-0.5,0.7-1.2,0.4-1.9c-0.3-0.7-0.9-1.1-1.6-1.1H1.2
		c-0.2,0-0.3-0.2-0.3-0.3v-2.9c0-0.2,0.2-0.3,0.3-0.3h2.2c0.7,0,1.3-0.4,1.6-1.1c0.3-0.7,0.1-1.4-0.4-1.9L3.1,5.6
		C3,5.5,3,5.3,3.1,5.2l2-2C5.3,3,5.5,3,5.6,3.1l1.6,1.6c0.5,0.5,1.2,0.7,1.9,0.4c0.7-0.3,1.1-0.9,1.1-1.6V1.2c0-0.2,0.2-0.3,0.3-0.3
		h2.9c0.2,0,0.3,0.2,0.3,0.3v2.2c0,0.7,0.4,1.3,1.1,1.6c0.7,0.3,1.4,0.1,1.9-0.4l1.6-1.6c0.1-0.1,0.4-0.1,0.5,0l2,2
		c0.1,0.1,0.1,0.4,0,0.5l-1.6,1.6c-0.5,0.5-0.7,1.2-0.4,1.9c0.3,0.7,0.9,1.1,1.6,1.1h2.2c0.2,0,0.3,0.2,0.3,0.3V13.4z"/>
	<path class="st0" d="M12,8c-2.2,0-4,1.8-4,4s1.8,4,4,4s4-1.8,4-4S14.2,8,12,8z M12,15.1c-1.7,0-3.1-1.4-3.1-3.1s1.4-3.1,3.1-3.1
		s3.1,1.4,3.1,3.1S13.7,15.1,12,15.1z"/>
</g>
</svg>
