<?xml version="1.0" encoding="utf-8"?>
<!-- Generator: Adobe Illustrator 19.2.1, SVG Export Plug-In . SVG Version: 6.00 Build 0)  -->
<svg version="1.1" id="Capa_1" xmlns="http://www.w3.org/2000/svg" xmlns:xlink="http://www.w3.org/1999/xlink" x="0px" y="0px"
	 viewBox="0 0 49.7 49.7" style="enable-background:new 0 0 49.7 49.7;" xml:space="preserve">
<g>
	<path d="M27,14h8.9v8.9l13.4-9.8L35.8,3.3v8.9H27c-7,0-12.8,5.7-12.8,12.8c0,6-4.8,10.8-10.8,10.8h-2c-0.6,0-1,0.5-1,1
		s0.5,0.9,1,0.9h2c7,0,12.8-5.7,12.8-12.8C16.2,18.9,21,14,27,14z M37.8,7.1l8.2,6l-8.2,6V7.1z"/>
	<path d="M1.5,14h2c2.6,0,5.2,0.9,7.2,2.8c0.2,0.1,0.5,0.2,0.7,0.2c0.2,0,0.6-0.1,0.7-0.3c0.3-0.5,0.3-1-0.1-1.4
		C9.6,13.2,6.5,12,3.4,12h-2c-0.6,0-1,0.5-1,1C0.4,13.6,0.9,14,1.5,14z"/>
	<path d="M35.8,35.7H27c-2.6,0-5.2-0.9-7.1-2.6c-0.5-0.3-1-0.3-1.4,0.1c-0.3,0.5-0.3,1,0.1,1.4c2.3,2.1,5.3,3.2,8.5,3.2h8.9v8.9
		l13.4-9.8l-13.4-9.8v8.6H35.8z M37.8,30.6l8.2,6l-8.2,6V30.6z"/>
</g>
</svg>
